<svg xmlns="http://www.w3.org/2000/svg" viewBox="4746 8610 3157 3181">
	<path d="M6308 11783 c0 -5 -2 -12 -3 -18 -1 -5 -27 -36 -58 -68 -55 -57 -137 -199 -137 -238 0 -14 8 -18 42 -17 34 0 47 -5 65 -26 27 -32 30 -67 6 -89 -23 -20 -73 -33 -73 -18 0 6 6 11 14 11 7 0 21 12 31 26 22 34 13 72 -20 80 -33 8 -50 1 -71 -32 -17 -24 -17 -29 -2 -54 9 -17 12 -33 7 -42 -5 -10 18 -94 66 -239 41 -123 70 -228 66 -232 -5 -5 -23 -1 -41 8 -36 18 -36 18 -48 -14 -8 -23 -10 -22 -31 23 -22 43 -22 48 -7 65 23 26 20 46 -14 84 -16 19 -30 40 -30 46 0 6 -7 11 -15 11 -8 0 -34 14 -57 30 -22 17 -44 30 -48 30 -17 0 -33 -63 -38 -148 -4 -78 -2 -95 13 -112 9 -10 23 -16 30 -14 16 6 41 -29 51 -71 7 -29 6 -30 -13 -13 -23 21 -43 8 -43 -30 0 -19 -5 -23 -22 -20 -19 2 -42 41 -127 216 -58 116 -110 212 -116 212 -6 0 -18 -11 -25 -25 -23 -43 -91 -50 -122 -13 -29 33 -23 79 14 111 l31 28 -22 15 c-51 36 -136 57 -242 62 -118 5 -109 9 -124 -65 -14 -69 46 -313 77 -313 5 0 19 12 32 27 18 20 33 27 61 27 74 0 101 -80 45 -131 -17 -15 -29 -31 -27 -36 1 -5 97 -57 212 -116 115 -58 211 -111 213 -118 2 -7 -13 -19 -32 -27 -38 -16 -43 -25 -24 -44 9 -9 8 -12 -5 -12 -30 0 -77 30 -77 49 0 10 -8 25 -18 34 -35 32 -233 15 -247 -20 -7 -20 53 -110 102 -153 33 -30 76 -39 88 -20 9 14 32 12 71 -6 32 -15 50 -39 20 -28 -21 8 -27 -24 -11 -57 13 -24 13 -30 2 -34 -7 -3 -113 28 -236 70 -123 41 -227 72 -232 69 -5 -3 -9 -27 -9 -53 0 -55 -20 -81 -64 -81 -42 0 -76 41 -76 91 0 40 -1 41 -27 34 -88 -21 -234 -125 -278 -197 -16 -27 -16 -27 45 -87 66 -65 215 -149 244 -138 11 5 16 20 16 50 0 52 22 77 68 77 45 0 74 -34 72 -85 -1 -22 -1 -43 -1 -47 1 -4 100 27 222 68 122 41 227 74 234 74 25 0 34 -24 20 -50 -21 -38 -18 -48 13 -43 l27 4 -24 -20 c-34 -30 -68 -37 -90 -17 -24 22 -55 10 -102 -41 -40 -42 -99 -126 -99 -141 0 -12 100 -32 162 -32 62 0 86 13 104 55 11 27 21 35 49 41 42 7 53 1 35 -21 -15 -18 -14 -19 25 -32 64 -21 45 -36 -175 -144 -166 -81 -212 -108 -216 -126 -3 -12 -9 -22 -13 -21 -37 4 -80 -45 -66 -79 4 -13 3 -14 -9 -4 -32 27 -97 -151 -101 -278 -1 -42 -5 -84 -9 -93 -4 -9 -5 -22 -1 -28 9 -15 42 -12 48 4 4 9 32 15 89 19 45 3 106 13 134 21 58 18 120 58 116 74 -1 7 9 12 22 12 32 0 69 46 60 74 -6 18 -5 19 9 8 20 -17 21 -16 139 223 76 152 99 191 116 193 18 3 23 -3 28 -27 8 -40 20 -47 36 -21 17 27 28 25 28 -5 0 -36 -21 -75 -41 -75 -36 0 -59 -47 -59 -122 0 -65 16 -158 27 -158 18 0 139 99 164 132 33 47 35 55 13 79 -13 15 -14 23 -4 53 13 40 29 47 37 16 6 -24 12 -24 37 -5 11 8 28 15 38 15 31 0 22 -47 -52 -266 -38 -114 -70 -211 -70 -216 0 -5 14 -7 31 -3 55 12 109 -28 109 -80 0 -27 -38 -55 -72 -54 -29 0 -30 1 -12 9 24 9 54 47 54 67 0 18 -37 53 -55 53 -21 0 -65 -48 -65 -70 0 -9 9 -25 19 -34 16 -15 18 -22 9 -36 -9 -14 -7 -31 10 -77 12 -33 22 -67 22 -76 0 -9 8 -18 18 -21 9 -3 28 -22 41 -41 25 -37 92 -95 109 -95 5 0 39 31 75 69 61 65 118 160 133 224 6 26 5 27 -35 27 -31 0 -48 6 -66 25 -47 46 -26 102 40 111 l40 5 -27 -16 c-47 -26 -61 -71 -32 -99 23 -24 60 -19 83 10 26 33 26 49 1 74 -11 11 -16 20 -11 20 24 0 14 46 -54 251 -76 227 -80 254 -33 232 38 -17 43 -17 54 6 11 21 12 20 32 -21 19 -38 20 -44 7 -65 -8 -12 -15 -29 -15 -38 0 -23 64 -89 127 -131 63 -41 66 -40 83 39 17 82 13 170 -10 195 -11 12 -27 19 -34 16 -16 -6 -46 42 -46 72 0 16 1 16 19 0 19 -17 20 -17 30 3 6 11 11 27 11 36 0 11 7 15 22 13 19 -2 42 -41 126 -213 57 -115 106 -212 109 -215 2 -3 17 10 31 27 38 46 83 53 116 20 36 -36 35 -79 -4 -114 -16 -14 -30 -29 -30 -32 0 -12 86 -51 145 -66 71 -18 206 -20 223 -3 23 23 15 178 -13 266 -32 100 -46 114 -80 78 -28 -30 -78 -35 -113 -10 -16 11 -22 25 -22 54 0 32 6 43 30 60 17 12 30 27 30 34 0 7 -96 59 -212 117 -219 107 -250 130 -189 144 37 8 47 21 31 40 -10 12 -9 15 4 15 31 0 76 -30 76 -50 0 -28 39 -50 89 -50 74 0 169 20 176 37 11 29 -96 166 -144 184 -18 7 -28 5 -42 -7 -22 -20 -56 -13 -90 17 -13 11 -19 18 -13 15 7 -3 17 1 23 8 10 11 9 21 -4 45 -14 28 -14 32 -1 37 24 9 116 -25 110 -41 -8 -19 18 -31 29 -14 8 13 33 7 166 -37 86 -29 158 -50 161 -47 3 2 5 27 6 55 0 37 6 55 19 64 53 39 129 -7 124 -74 -3 -34 -1 -37 21 -34 55 5 156 66 229 138 l74 73 -35 43 c-69 84 -252 188 -281 159 -6 -6 -10 -27 -9 -46 6 -68 -70 -101 -118 -50 -19 21 -24 35 -22 71 1 33 -2 45 -11 42 -6 -3 -110 -38 -230 -78 -199 -66 -220 -71 -234 -57 -15 14 -15 18 0 41 25 37 21 46 -15 39 -30 -6 -32 -5 -19 10 7 9 31 22 52 29 33 9 42 9 57 -5 16 -14 20 -14 50 0 42 21 152 153 152 185 0 11 -98 28 -164 28 -52 0 -66 -4 -84 -23 -12 -13 -22 -30 -22 -39 0 -18 -41 -38 -77 -38 -25 0 -25 1 -9 19 22 24 15 37 -24 44 -62 13 -34 35 181 143 147 73 213 111 216 125 3 10 13 19 23 19 24 0 63 49 57 71 -3 10 1 16 12 15 22 -1 67 94 85 181 9 41 12 92 9 131 l-6 62 -86 0 c-93 0 -165 -15 -236 -50 -41 -20 -50 -30 -46 -53 1 -5 -3 -6 -9 -2 -30 19 -89 -46 -75 -83 5 -14 4 -15 -6 -4 -19 18 -24 15 -44 -27 -12 -27 -22 -38 -32 -34 -12 5 -14 1 -9 -15 8 -25 -47 -141 -66 -138 -7 0 -13 -3 -13 -9 0 -5 3 -9 7 -8 13 5 10 -4 -37 -97 -34 -68 -50 -90 -65 -90 -13 0 -22 9 -26 28 -11 43 -15 45 -40 21 l-24 -22 0 34 c0 40 24 81 44 73 8 -3 23 7 35 22 16 21 21 41 21 90 0 70 -17 164 -30 164 -14 0 -125 -86 -152 -118 -37 -44 -43 -70 -23 -92 14 -16 15 -22 2 -51 -8 -19 -22 -41 -32 -49 -16 -14 -17 -12 -11 18 9 37 6 38 -36 16 -27 -14 -32 -14 -45 -1 -14 13 -7 40 57 234 40 120 75 223 77 230 3 8 -10 11 -40 10 -55 -2 -91 24 -83 59 4 13 1 26 -5 29 -21 14 22 45 60 44 26 -2 29 -3 11 -6 -25 -4 -50 -41 -50 -75 0 -10 11 -25 25 -34 23 -15 27 -15 50 0 42 27 50 54 27 85 -14 20 -17 32 -10 44 22 40 -79 224 -152 279 -17 12 -30 30 -30 40 0 17 -28 27 -32 11z m61 -110 c50 -52 96 -123 106 -166 6 -23 4 -27 -15 -27 -12 0 -37 -15 -56 -34 -29 -29 -34 -41 -34 -79 0 -65 40 -102 108 -100 6 1 12 -5 12 -11 0 -7 -30 -100 -66 -207 -59 -174 -65 -200 -60 -249 6 -53 5 -54 -10 -32 -22 29 -38 28 -60 -5 l-18 -28 -6 30 c-4 17 -3 38 2 47 15 31 8 58 -57 250 -36 105 -65 192 -65 194 0 1 16 8 35 14 83 27 113 124 56 181 -20 19 -40 29 -60 29 -17 0 -31 5 -31 11 0 44 131 229 163 229 6 0 31 -21 56 -47z m-199 -304 c0 -14 -5 -19 -17 -17 -26 5 -29 38 -4 38 15 0 21 -6 21 -21z m335 1 c0 -22 -29 -18 -33 3 -3 14 1 18 15 15 10 -2 18 -10 18 -18z m-1074 -116 c30 -9 58 -22 62 -30 5 -8 13 -12 18 -8 6 3 1 -11 -10 -32 -12 -21 -21 -47 -21 -57 0 -27 27 -75 49 -87 34 -17 96 -12 116 10 10 11 22 20 27 20 5 0 48 -80 95 -177 87 -182 124 -243 147 -243 8 0 19 -7 26 -15 11 -13 9 -15 -13 -15 -26 0 -37 -16 -37 -52 0 -20 -1 -21 -20 -3 -11 10 -20 24 -20 31 0 23 -60 60 -231 141 -91 44 -169 85 -173 91 -3 6 3 26 14 44 24 40 25 59 5 98 -31 60 -103 73 -158 30 l-24 -19 -16 42 c-28 75 -37 121 -37 185 l0 62 73 0 c40 0 98 -7 128 -16z m1976 -71 c-4 -69 -27 -174 -41 -190 -1 -2 -20 6 -41 17 -22 11 -45 20 -53 20 -27 0 -73 -32 -92 -63 -25 -41 -25 -73 0 -115 l20 -33 -167 -81 c-181 -86 -229 -117 -243 -153 -5 -13 -18 -28 -29 -34 -18 -10 -19 -8 -14 28 l5 40 -38 3 -39 3 43 28 c39 25 51 45 138 223 l94 195 27 -20 c41 -33 104 -29 141 9 41 41 49 81 24 130 l-20 40 62 19 c39 13 91 20 145 20 l84 1 -6 -87z m-289 -62 c-4 -50 -41 -68 -93 -47 -38 16 -47 27 -15 19 35 -9 67 5 80 37 10 23 10 34 1 43 -6 6 -11 16 -11 22 1 5 10 -1 21 -14 14 -17 19 -36 17 -60z m-58 24 c0 -19 -13 -25 -29 -15 -19 11 -6 41 14 34 8 -3 15 -12 15 -19z m-365 -173 l7 -63 -41 -44 c-48 -52 -61 -81 -62 -138 0 -36 -2 -39 -12 -24 -35 53 -33 53 -68 40 -43 -16 -48 -9 -18 25 49 53 54 66 59 135 l5 71 54 44 c62 51 65 49 76 -46z m-682 43 c58 -44 67 -61 67 -125 0 -58 9 -81 54 -129 24 -26 26 -31 9 -22 -34 18 -51 13 -70 -19 -9 -16 -21 -30 -25 -30 -4 0 -8 24 -8 53 0 56 -24 108 -58 126 -31 17 -45 64 -37 126 3 30 10 55 14 55 5 0 29 -16 54 -35z m1287 -40 c17 -9 30 -18 30 -21 0 -2 -9 0 -20 6 -44 24 -98 -25 -86 -77 6 -27 6 -27 -9 -9 -26 33 -23 73 7 99 25 21 40 21 78 2z m-16 -51 c22 -9 20 -34 -3 -34 -19 0 -35 23 -24 34 8 7 8 7 27 0z m-850 -196 c-35 -151 -100 -336 -114 -321 -24 24 -120 314 -120 361 0 6 6 12 14 12 9 0 18 -22 26 -66 10 -61 61 -194 74 -194 13 0 59 107 77 178 17 68 30 91 51 92 3 0 0 -28 -8 -62z m-95 -19 c21 -34 18 -67 -6 -65 -9 0 -18 -5 -20 -11 -3 -7 2 -13 11 -13 10 0 13 -6 10 -15 -9 -22 -20 -10 -38 41 -12 35 -13 50 -4 69 15 33 24 31 47 -6z m-206 -11 c12 -10 15 -20 9 -40 l-7 -28 -28 23 c-44 34 -18 77 26 45z m411 -4 c10 -27 6 -38 -19 -57 -24 -18 -25 -17 -25 3 0 12 5 18 10 15 6 -3 15 -3 20 0 16 10 -8 35 -26 28 -8 -3 -14 -1 -14 5 0 23 46 28 54 6z m112 -59 c-51 -69 -116 -215 -96 -215 25 0 126 46 179 81 53 35 91 43 91 20 0 -16 -318 -181 -349 -181 -6 0 -11 6 -11 13 0 19 103 227 144 292 35 53 38 56 51 39 12 -17 11 -23 -9 -49z m-558 -145 c40 -79 71 -145 69 -147 -9 -8 -203 85 -300 144 -38 23 -55 39 -49 45 6 6 31 -5 68 -30 60 -40 107 -63 156 -75 21 -6 28 -3 33 12 8 27 -29 119 -76 187 l-42 59 34 -26 c25 -18 54 -65 107 -169z m371 99 l1 -37 38 35 c70 65 74 58 19 -45 -39 -76 -59 -102 -80 -110 -25 -9 -29 -8 -42 18 -13 26 -12 36 18 129 33 104 43 106 46 10z m-228 -100 c15 -28 -6 -63 -34 -55 -12 3 -25 6 -29 6 -4 0 -29 42 -54 93 l-46 92 40 -38 c44 -43 52 -38 52 32 0 65 13 54 37 -30 13 -45 28 -90 34 -100z m-274 81 c28 -10 71 -75 59 -88 -4 -4 -86 27 -86 32 0 1 -4 16 -9 34 -11 35 -8 37 36 22z m721 -6 c39 -11 24 -46 -31 -73 -26 -13 -50 -21 -53 -18 -7 7 24 80 39 89 15 9 16 9 45 2z m-1043 -49 c46 -45 91 -62 140 -53 32 6 31 1 -1 -29 -22 -20 -25 -30 -20 -56 l6 -31 -32 31 c-46 43 -70 53 -122 53 -25 0 -46 5 -46 10 0 6 8 10 18 10 42 0 55 47 22 80 -24 24 -63 26 -84 4 -22 -22 -20 -50 6 -74 12 -11 17 -20 10 -20 -6 0 -30 24 -53 52 -41 52 -41 53 -18 59 13 4 48 7 76 8 50 1 56 -2 98 -44z m1542 31 c8 -8 -46 -84 -71 -102 -12 -8 -44 -14 -74 -14 -59 0 -95 -15 -131 -54 -28 -30 -57 -36 -46 -8 20 47 17 60 -14 76 -17 9 -31 18 -31 19 0 1 24 2 54 3 51 0 58 3 106 48 l52 49 75 -6 c41 -3 77 -8 80 -11z m-1607 -46 c8 -5 12 -12 9 -15 -8 -8 -39 5 -39 16 0 11 11 11 30 -1z m1190 -64 c0 -3 -19 -26 -42 -53 l-41 -48 59 -5 59 -5 -97 -33 c-93 -31 -99 -32 -128 -17 -28 14 -29 18 -18 39 8 14 53 45 108 74 105 56 100 54 100 48z m-916 -38 c12 -17 13 -24 3 -30 -33 -21 -67 2 -53 37 8 22 32 18 50 -7z m134 -26 c45 -23 82 -46 82 -51 0 -5 3 -16 6 -25 4 -10 -2 -19 -18 -26 -18 -8 -43 -3 -123 24 l-100 35 53 0 c33 1 51 5 47 11 -3 6 -1 10 6 10 7 0 -3 16 -22 36 -39 42 -40 42 69 -14z m296 11 c20 -42 10 -59 -38 -65 -26 -3 -30 1 -42 35 -12 33 -4 52 11 27 11 -17 24 -11 31 15 8 34 17 31 38 -12z m102 12 c6 -24 7 -24 36 -9 16 9 31 14 33 12 2 -2 -5 -22 -15 -46 -20 -44 -24 -45 -77 -19 -26 12 -28 25 -11 62 14 32 26 32 34 0z m438 19 c9 -3 16 -17 16 -30 0 -25 -13 -28 -58 -16 -21 7 -22 8 -7 30 17 23 24 26 49 16z m-1137 -185 c18 7 42 10 52 6 18 -5 18 -7 -5 -32 l-25 -27 22 -17 c20 -15 20 -16 4 -23 -10 -4 -23 -2 -29 4 -18 18 -51 11 -260 -59 -191 -65 -206 -68 -206 -49 0 34 -29 85 -56 97 -46 21 -83 14 -120 -23 -19 -19 -34 -43 -34 -54 0 -12 -4 -23 -9 -26 -17 -11 -133 59 -189 112 l-57 55 51 46 c71 66 208 135 203 104 -9 -56 39 -113 96 -113 29 0 45 8 71 34 19 19 37 48 40 64 l6 30 206 -70 c189 -65 208 -70 239 -59z m1713 100 c0 -22 10 -41 35 -66 32 -32 39 -35 78 -30 47 7 84 41 94 88 3 16 10 29 15 29 46 0 228 -137 228 -172 0 -21 -83 -90 -155 -128 -73 -38 -85 -38 -85 1 0 42 -47 89 -90 89 -45 0 -85 -24 -104 -64 -9 -19 -16 -39 -16 -45 0 -6 -4 -11 -8 -11 -5 0 -95 29 -201 65 -197 66 -229 73 -248 54 -5 -5 -22 -7 -37 -3 l-27 6 22 24 c21 22 21 54 -1 54 -5 0 -10 5 -10 10 0 6 9 10 19 10 11 0 23 -4 26 -10 12 -19 50 -10 250 60 110 38 203 69 208 69 4 1 7 -13 7 -30z m-879 -42 c-18 -18 -13 -37 9 -37 30 0 24 -14 -13 -32 -31 -15 -33 -14 -50 9 -27 35 -18 64 23 78 36 12 52 3 31 -18z m-663 -14 c118 -33 245 -84 235 -93 -15 -14 -168 -68 -248 -88 -144 -36 -138 -35 -127 -15 6 10 33 22 71 29 72 15 177 60 185 80 9 24 -103 70 -216 89 -24 4 -38 11 -38 21 0 16 5 15 138 -23z m315 20 c13 -4 17 -14 15 -36 -4 -43 -25 -52 -73 -31 -32 14 -36 18 -20 22 26 6 36 22 29 46 -5 15 -3 18 12 11 11 -4 27 -10 37 -12z m167 2 c7 -8 23 -15 36 -15 23 0 49 -31 37 -44 -4 -3 4 -17 17 -31 l23 -25 -22 -24 c-12 -13 -21 -27 -20 -32 4 -24 -3 -34 -25 -34 -13 0 -29 -7 -36 -15 -7 -8 -18 -15 -25 -15 -7 0 -18 7 -25 15 -7 8 -23 15 -35 15 -26 0 -49 23 -42 42 2 7 -5 23 -16 35 -20 22 -20 23 -1 44 10 12 19 31 19 43 0 16 7 22 30 24 17 2 34 10 38 18 10 18 31 18 47 -1z m584 0 c-4 -8 -18 -18 -33 -21 -125 -25 -219 -63 -229 -92 -6 -18 100 -62 182 -76 38 -7 71 -17 74 -24 2 -7 -5 -12 -15 -12 -52 0 -363 102 -363 119 0 16 314 117 372 120 12 1 15 -4 12 -14z m-1054 -91 c45 -18 43 -25 -8 -42 -27 -9 -40 -9 -63 3 -33 18 -36 30 -11 44 24 14 35 13 82 -5z m987 -6 c19 -15 16 -23 -13 -37 -22 -9 -35 -9 -70 5 -24 9 -44 20 -44 24 0 4 15 12 33 18 34 11 74 7 94 -10z m-667 -96 c0 -13 -13 -24 -41 -35 -44 -17 -45 -16 -25 34 5 12 0 18 -21 24 l-28 7 40 18 c39 16 40 16 57 -6 10 -12 18 -31 18 -42z m360 26 c0 -5 -6 -8 -14 -8 -17 0 -28 -24 -20 -45 5 -13 1 -13 -32 -1 -33 11 -38 17 -35 37 1 13 7 32 12 41 8 15 11 15 49 0 22 -9 40 -20 40 -24z m-495 -30 c22 -10 25 -16 20 -37 -4 -14 -7 -26 -8 -27 -46 -25 -201 -104 -205 -104 -2 0 17 25 43 55 l47 55 -51 0 c-28 0 -51 3 -51 8 0 6 137 56 167 60 7 1 24 -3 38 -10z m638 -17 c48 -15 90 -31 94 -34 3 -4 -14 -7 -40 -7 -25 0 -49 -5 -53 -11 -3 -6 9 -27 27 -46 l34 -35 -91 45 c-97 49 -122 79 -87 105 21 15 13 16 116 -17z m-440 -31 c7 0 20 -7 30 -15 17 -12 17 -17 6 -49 -15 -42 -26 -46 -35 -11 -7 30 -6 29 -46 9 -29 -15 -31 -15 -23 2 4 11 12 32 17 47 7 19 15 26 25 23 8 -3 20 -6 26 -6z m183 -33 c12 -35 12 -37 -6 -27 -27 15 -30 13 -42 -21 l-11 -31 -18 43 c-21 46 -15 65 24 72 35 7 40 3 53 -36z m-291 -59 c-29 -69 -94 -191 -133 -251 -24 -36 -25 -37 -39 -17 -13 18 -11 24 16 57 50 62 107 203 82 203 -27 0 -124 -44 -176 -81 -50 -35 -60 -39 -72 -26 -13 12 -4 21 66 62 103 60 275 138 279 126 2 -5 -9 -38 -23 -73z m470 11 c131 -63 219 -119 207 -131 -5 -5 -35 9 -74 36 -78 52 -164 84 -181 67 -17 -17 17 -111 67 -185 26 -39 40 -69 35 -77 -12 -20 -122 169 -183 314 -15 38 -15 38 7 32 12 -4 67 -29 122 -56z m-845 32 c-19 -37 -12 -61 23 -76 l32 -14 -48 -1 c-57 0 -90 -16 -135 -64 -25 -27 -42 -36 -66 -36 -62 0 -126 13 -126 25 0 7 18 33 41 59 39 44 43 46 95 46 64 0 109 17 143 54 30 32 57 36 41 7z m1212 -55 c18 -3 53 -7 77 -8 41 -3 49 -8 90 -58 l44 -55 -29 -6 c-16 -4 -50 -7 -76 -8 -43 -1 -51 3 -85 38 -44 46 -78 61 -136 61 l-42 0 29 26 c23 22 27 32 22 56 l-6 30 39 -35 c22 -20 55 -38 73 -41z m-1120 56 c16 -7 16 -9 -1 -31 -16 -21 -21 -22 -42 -11 -32 17 -30 15 -23 34 6 16 36 20 66 8z m973 -13 c7 -20 -7 -38 -27 -39 -8 0 -38 41 -38 52 0 5 13 8 29 8 21 0 32 -6 36 -21z m-477 -111 c34 -90 82 -252 82 -274 0 -8 -6 -14 -13 -14 -9 0 -20 28 -30 78 -20 92 -62 186 -78 176 -19 -11 -58 -106 -75 -181 -10 -44 -22 -74 -31 -77 -22 -9 -23 -7 -11 49 6 30 19 57 31 67 17 13 19 19 8 31 -10 13 -7 30 14 92 39 112 55 146 64 141 4 -3 22 -43 39 -88z m-125 42 c14 -28 13 -36 -14 -116 -16 -47 -29 -93 -30 -102 -2 -32 -17 32 -18 76 l-1 44 -51 -46 c-29 -26 -53 -45 -55 -43 -7 7 92 187 104 187 6 0 12 4 12 9 0 5 8 12 18 14 9 3 18 5 19 6 1 0 8 -12 16 -29z m277 -71 c22 -43 40 -82 40 -86 0 -4 -15 8 -34 26 -37 36 -46 30 -46 -32 0 -18 -5 -39 -10 -47 -8 -13 -10 -13 -10 2 0 9 -13 57 -30 107 -24 74 -27 95 -18 110 9 16 16 17 40 9 22 -8 38 -28 68 -89z m-485 15 c-8 -20 -15 -38 -15 -41 0 -6 -67 -33 -81 -33 -13 0 -4 47 14 69 13 15 64 40 85 41 9 0 9 -8 -3 -36z m681 -37 c7 -35 6 -36 -32 -26 -21 6 -35 20 -47 44 -25 53 -22 57 28 33 33 -16 46 -29 51 -51z m-814 -39 l-4 -41 36 6 c42 7 46 -10 8 -29 -43 -22 -59 -46 -152 -233 l-94 -190 -23 19 c-56 44 -125 30 -163 -33 -25 -40 -25 -73 -1 -113 l19 -32 -51 -17 c-29 -10 -94 -20 -146 -23 l-93 -4 4 93 c3 52 13 117 23 146 l18 52 27 -19 c44 -31 102 -27 138 10 42 41 49 81 24 131 l-20 40 189 94 c136 69 193 102 206 122 22 36 44 63 52 63 4 0 5 -19 3 -42z m898 -13 c0 -22 36 -45 221 -136 101 -50 185 -92 187 -94 2 -2 -6 -20 -17 -41 -12 -21 -21 -47 -21 -57 0 -27 27 -75 49 -87 34 -17 96 -12 116 10 10 11 21 20 26 20 16 0 51 -129 56 -209 l6 -84 -89 5 c-80 5 -176 28 -197 48 -5 4 1 23 12 41 25 41 26 60 6 99 -31 61 -103 73 -160 28 l-26 -20 -85 179 c-89 183 -125 243 -148 243 -8 0 -19 7 -26 15 -11 13 -9 15 13 15 26 0 37 16 37 52 0 20 1 21 20 3 11 -10 20 -23 20 -30z m-447 -48 c14 -42 9 -78 -12 -91 -16 -10 -52 55 -45 79 24 77 34 79 57 12z m-201 -49 c-7 -15 -42 -8 -52 11 -8 16 -5 23 18 40 l27 20 6 -32 c3 -18 3 -35 1 -39z m408 2 c-6 -12 -17 -16 -30 -13 -27 7 -32 17 -24 47 l6 26 29 -21 c23 -16 27 -24 19 -39z m-474 -47 c9 -13 16 -14 44 -4 46 15 49 7 13 -32 -44 -46 -53 -69 -53 -129 0 -30 -6 -62 -14 -73 -19 -28 -104 -87 -109 -77 -3 4 -8 39 -12 79 l-7 71 39 43 c53 58 63 79 64 131 0 37 2 40 12 25 7 -10 17 -26 23 -34z m524 -7 c0 -30 -5 -58 -10 -61 -13 -8 -2 -27 12 -23 12 4 71 -50 88 -81 8 -15 10 -41 6 -75 -6 -43 -10 -52 -27 -52 -12 0 -41 19 -65 41 -42 40 -44 44 -44 99 0 65 -9 87 -54 134 l-31 33 28 -10 c39 -15 40 -15 60 19 26 44 37 37 37 -24z m-235 -67 c-5 -46 -10 -58 -17 -46 -9 18 -28 23 -28 8 0 -4 11 -20 25 -35 14 -15 23 -31 20 -36 -3 -5 1 -15 9 -23 11 -10 116 -294 116 -313 0 -2 -7 -4 -16 -4 -26 0 -70 -31 -88 -60 -40 -68 2 -160 74 -160 28 0 31 -2 24 -22 -19 -64 -89 -166 -135 -199 l-29 -20 -51 52 c-28 29 -55 61 -61 73 -5 12 -20 41 -33 66 l-23 45 36 10 c64 18 99 96 71 158 -13 29 -58 57 -93 57 l-25 0 69 204 c70 205 79 243 60 262 -6 6 -8 19 -4 29 6 16 9 15 25 -6 l18 -24 28 27 c15 15 29 26 31 23 2 -2 1 -32 -3 -66z m-925 -116 c0 -22 -6 -36 -19 -43 -28 -15 -74 -12 -97 5 -18 15 -18 15 8 9 15 -3 35 -3 46 0 24 8 44 52 37 80 -6 21 -6 21 9 2 9 -11 16 -35 16 -53z m-60 21 c0 -8 -9 -14 -20 -14 -19 0 -27 19 -14 33 10 9 34 -4 34 -19z m240 -169 c36 -19 40 -29 5 -13 -47 21 -107 -48 -75 -87 8 -10 9 -15 2 -15 -35 0 -43 91 -10 114 28 20 41 20 78 1z m-2 -68 c2 -12 -3 -17 -17 -17 -15 0 -21 6 -21 21 0 25 33 22 38 -4z m550 -231 c3 -13 -1 -17 -14 -14 -11 2 -20 11 -22 22 -3 13 1 17 14 14 11 -2 20 -11 22 -22z m340 0 c3 -13 -1 -17 -14 -14 -11 2 -20 11 -22 22 -3 13 1 17 14 14 11 -2 20 -11 22 -22z" fill="#000000"/>
</svg>