<svg xmlns="http://www.w3.org/2000/svg" viewBox="330 8391.38 4010 4078">
	<path d="M4170 12459 c63 -25 112 -98 129 -195 34 -187 -100 -355 -283 -354 -108 1 -221 48 -367 153 -46 33 -123 84 -171 113 -389 231 -797 251 -1097 53 -103 -68 -173 -140 -252 -262 l-57 -88 -41 84 c-72 150 -197 248 -356 282 -89 19 -134 19 -232 0 -185 -35 -366 -171 -450 -340 -21 -44 -42 -90 -45 -102 -4 -15 -26 -31 -69 -51 -314 -144 -465 -527 -323 -823 46 -95 134 -183 233 -232 40 -20 82 -37 92 -37 32 0 21 -14 -47 -55 -357 -219 -488 -615 -348 -1056 49 -154 118 -284 250 -472 163 -230 192 -390 96 -528 -54 -77 -137 -119 -235 -119 -40 0 -88 5 -107 10 -56 15 -125 64 -143 101 -9 19 -17 27 -17 19 0 -9 12 -34 26 -57 92 -141 336 -150 469 -18 51 52 87 129 93 201 10 126 -36 233 -190 449 -144 201 -230 385 -264 565 -18 90 -19 256 -4 341 37 205 159 394 328 507 84 57 160 97 168 90 3 -4 -14 -33 -38 -65 -77 -100 -128 -182 -166 -261 -20 -42 -39 -79 -42 -82 -4 -3 -17 -39 -31 -80 -19 -61 -24 -96 -24 -185 0 -100 3 -115 27 -165 15 -30 55 -86 89 -125 74 -85 99 -136 110 -229 l8 -71 -3 85 c-4 100 -22 143 -110 258 -32 43 -62 94 -71 124 -22 75 -18 90 9 33 77 -165 305 -219 418 -99 55 59 74 154 43 213 -19 38 -72 81 -98 81 -16 0 -10 -6 20 -19 23 -11 49 -31 58 -45 36 -54 28 -144 -17 -209 -52 -74 -186 -95 -284 -44 -178 91 -205 327 -68 587 56 105 99 163 55 73 -69 -140 -104 -327 -82 -435 35 -166 217 -258 301 -150 23 28 26 84 7 100 -10 8 -12 3 -9 -27 3 -32 -1 -42 -28 -64 -54 -46 -122 -34 -187 35 -114 118 -75 377 100 670 29 48 54 88 57 88 3 0 6 -17 8 -38 6 -96 41 -132 129 -132 l48 -1 -37 -34 c-49 -46 -102 -48 -143 -8 -24 25 -27 33 -22 78 3 27 8 61 11 75 5 21 4 20 -8 -5 -25 -50 -20 -118 10 -154 21 -26 33 -31 67 -31 51 0 100 28 122 70 l16 30 -46 0 c-82 0 -125 41 -125 120 l0 27 138 6 c205 9 386 61 623 180 l124 62 37 90 c113 270 170 550 150 733 l-8 74 45 -7 c81 -12 111 -44 114 -121 1 -24 5 -44 8 -44 12 0 17 70 8 105 -16 58 -57 84 -118 76 -7 -2 -10 2 -7 8 9 14 109 33 132 25 72 -26 86 -102 32 -169 l-32 -40 32 29 c43 40 57 85 39 128 -29 70 -86 83 -190 44 -37 -14 -66 -22 -63 -17 7 11 161 104 233 140 104 52 226 83 328 85 103 1 151 -12 201 -57 45 -39 64 -76 64 -127 0 -33 -6 -48 -30 -72 -27 -26 -35 -29 -68 -24 -27 5 -33 4 -22 -3 8 -6 31 -11 51 -11 53 0 99 53 99 113 0 81 -80 172 -173 198 -107 30 -284 3 -436 -67 -108 -48 -52 -7 74 56 175 87 324 102 441 45 144 -70 200 -265 107 -375 -42 -51 -97 -73 -166 -68 -54 4 -63 8 -93 41 -20 21 -35 48 -35 64 -2 24 -2 25 -6 5 -6 -30 32 -89 70 -108 61 -32 169 -13 226 39 58 54 77 165 44 263 -21 61 -100 142 -163 167 l-45 17 40 -6 c59 -8 114 -36 196 -97 41 -30 88 -62 106 -71 37 -18 153 -37 153 -24 0 4 -13 8 -28 8 -57 0 -119 31 -201 101 -46 38 -100 78 -120 88 -42 21 -127 41 -177 41 -138 0 -392 -110 -574 -248 -58 -44 -106 -79 -108 -77 -6 6 40 90 94 171 149 226 392 354 675 354 233 0 498 -100 749 -285 193 -142 290 -185 421 -185 65 0 85 4 137 31 147 73 215 235 167 397 -9 29 -30 68 -47 88 -31 35 -96 75 -120 73 -7 0 -2 -5 12 -10z m-2446 -261 c145 -48 252 -157 305 -310 19 -55 19 -56 0 -87 -21 -35 -72 -69 -178 -119 -63 -30 -84 -35 -145 -35 -129 0 -214 59 -240 165 -6 25 -3 28 36 38 23 7 52 10 64 7 14 -2 21 0 17 6 -3 5 -32 7 -64 5 -51 -4 -59 -2 -59 13 0 30 20 73 48 102 14 15 21 27 14 27 -20 0 -64 -69 -69 -110 -5 -39 -18 -58 -30 -46 -3 3 0 25 7 50 14 50 69 110 103 113 12 1 43 7 69 14 83 21 159 -15 200 -94 41 -80 20 -166 -53 -215 -69 -47 -155 -7 -170 80 -6 39 -7 40 -8 10 -3 -98 106 -156 189 -99 51 34 73 70 78 130 6 71 -30 145 -90 184 -62 41 -159 45 -233 8 -63 -30 -103 -87 -112 -158 -4 -24 -17 -55 -31 -72 -64 -77 -77 -158 -38 -242 44 -93 149 -144 269 -129 122 16 285 122 382 251 30 41 60 77 65 80 33 20 23 -292 -14 -440 -31 -125 -66 -231 -114 -343 l-37 -87 -70 -37 c-105 -56 -309 -134 -426 -163 -74 -19 -143 -28 -238 -32 l-134 -6 14 21 c8 11 42 40 75 65 140 103 245 269 252 398 5 91 -2 127 -39 182 -74 112 -241 128 -328 33 -17 -18 -35 -26 -58 -26 -130 0 -227 -139 -193 -279 30 -124 172 -196 280 -141 72 37 107 118 76 178 -24 46 -63 72 -105 71 -35 -1 -35 -2 8 -9 59 -9 91 -46 91 -103 0 -134 -167 -184 -278 -83 -36 32 -52 70 -52 122 0 92 58 168 136 181 l37 6 -6 -44 c-3 -25 -2 -50 2 -58 5 -8 10 4 13 34 3 26 10 51 15 56 13 13 78 -8 113 -38 55 -46 75 -97 75 -195 0 -85 -1 -88 -55 -194 -85 -167 -130 -184 -285 -109 -74 35 -159 112 -202 181 -41 68 -67 170 -66 264 1 240 133 444 358 554 l70 34 33 79 c60 147 177 270 317 333 53 24 114 41 195 54 46 7 154 -6 214 -26z m-203 -510 c70 -59 210 -76 311 -38 28 10 47 15 42 10 -21 -21 -126 -50 -182 -50 -88 0 -155 24 -206 73 -50 48 -80 122 -56 137 10 6 19 -6 37 -48 12 -32 36 -69 54 -84z m-108 65 c9 -42 63 -100 121 -131 46 -24 62 -27 152 -27 95 0 104 2 172 36 40 19 72 34 72 32 0 -9 -99 -93 -143 -121 -175 -111 -357 -97 -424 33 -24 45 -20 124 7 173 26 45 35 46 43 5z m-185 -390 c22 -12 49 -39 67 -68 27 -43 30 -57 30 -129 0 -70 -4 -90 -32 -149 -32 -68 -99 -162 -147 -206 -22 -21 -20 -14 17 59 40 79 42 86 42 174 -1 79 -4 99 -28 148 -31 63 -71 102 -129 125 -33 13 -37 18 -26 29 23 23 91 44 131 40 20 -2 54 -13 75 -23z m-280 -65 c-2 -6 -15 -13 -29 -15 -53 -7 -71 -15 -112 -51 l-42 -37 26 35 c14 19 45 45 69 58 47 24 94 29 88 10z m137 -26 c88 -61 125 -203 86 -330 -12 -39 -26 -74 -31 -77 -6 -4 -2 13 7 37 12 29 18 69 18 123 0 127 -47 206 -143 241 -57 21 -56 20 -47 34 11 18 64 4 110 -28z" fill="#000000"/>
</svg>